<svg xmlns="http://www.w3.org/2000/svg" xmlns:xlink="http://www.w3.org/1999/xlink" width="40" zoomAndPan="magnify" viewBox="0 0 30 30.000001" height="40" preserveAspectRatio="xMidYMid meet" version="1.0"><defs><g/></defs><g fill="#563156" fill-opacity="1"><g transform="translate(6.208759, 18.153178)"><g><path d="M 7.484375 -14.753906 C 7.484375 -14.824219 7.441406 -15.113281 7.359375 -15.222656 C 7.070312 -15.59375 6.464844 -16.460938 6.21875 -16.460938 C 4.355469 -13.605469 1.527344 -9.65625 0.164062 -5.585938 C -0.433594 -3.816406 -0.859375 -1.90625 -0.859375 -0.433594 C -0.859375 0.152344 1.652344 1.011719 2.234375 1.167969 C 3.066406 0.660156 3.90625 0.109375 4.621094 -0.558594 C 5.386719 -1.285156 6.191406 -2.351562 6.203125 -2.53125 C 7.441406 -2.621094 8.570312 -2.9375 9.554688 -3.707031 C 9.808594 -3.90625 9.960938 -4.367188 9.960938 -4.773438 C 9.960938 -4.980469 9.863281 -5.558594 9.589844 -5.558594 C 9.5 -5.558594 9.390625 -5.496094 9.265625 -5.425781 C 8.585938 -5.042969 7.855469 -4.765625 7.078125 -4.765625 C 6.960938 -4.765625 6.851562 -4.773438 6.734375 -4.78125 C 6.714844 -5.550781 5.515625 -6.679688 4.304688 -6.679688 C 3.816406 -6.679688 3.171875 -6.625 2.867188 -6.238281 C 4.183594 -9.003906 6.039062 -11.824219 7.484375 -14.753906 Z M 1.699219 -1.3125 C 1.554688 -1.3125 1.5 -1.457031 1.5 -1.582031 C 1.5 -2.53125 1.519531 -3.425781 2.152344 -4.410156 C 2.992188 -3.777344 3.933594 -3.128906 4.5 -2.957031 C 3.933594 -2.324219 2.695312 -1.3125 1.699219 -1.3125 Z M 1.699219 -1.3125 "/></g></g></g><g fill="#563156" fill-opacity="1"><g transform="translate(14.349796, 18.153178)"><g><path d="M 4.160156 -8.886719 C 3.832031 -8.886719 3.480469 -8.832031 3.101562 -8.722656 C 2.792969 -8.785156 2.40625 -8.894531 2.0625 -8.894531 C 1.707031 -8.894531 1.402344 -8.777344 1.265625 -8.390625 C 1.03125 -7.683594 0.289062 -5.730469 0.0351562 -5.042969 C -2.902344 2.820312 -3.921875 4.566406 -4.175781 5.171875 L -2.234375 6.417969 C -1.285156 4.257812 -0.308594 1.871094 0.496094 -0.523438 C 1.046875 -0.316406 1.664062 -0.179688 2.277344 -0.179688 C 2.867188 -0.179688 3.453125 -0.308594 3.960938 -0.625 C 4.347656 -0.242188 4.800781 -0.0742188 5.296875 -0.0742188 C 6.253906 -0.0742188 7.367188 -0.714844 8.441406 -1.691406 C 9.917969 -3.019531 10.441406 -4.039062 10.441406 -4.683594 C 10.441406 -5.152344 10.160156 -5.425781 9.773438 -5.476562 C 8.171875 -3.355469 6.761719 -1.917969 5.234375 -1.71875 C 6.570312 -2.59375 7.078125 -4.066406 7.078125 -5.289062 C 7.078125 -7.078125 6.082031 -8.886719 4.160156 -8.886719 Z M 3.617188 -6.582031 C 4.511719 -6.582031 4.871094 -5.886719 4.871094 -5.097656 C 4.871094 -3.660156 3.617188 -2.3125 2.160156 -2.3125 C 1.800781 -2.3125 1.457031 -2.394531 1.148438 -2.558594 C 1.636719 -4.023438 2.105469 -4.890625 2.695312 -6.464844 C 3.128906 -6.582031 3.183594 -6.582031 3.617188 -6.582031 Z M 3.617188 -6.582031 "/></g></g></g></svg>