<svg xmlns="http://www.w3.org/2000/svg" xmlns:xlink="http://www.w3.org/1999/xlink" width="100" zoomAndPan="magnify" viewBox="0 0 75 56.249996" height="75" preserveAspectRatio="xMidYMid meet" version="1.0"><defs><g/></defs><g fill="#FFFFFF" fill-opacity="1"><g transform="translate(6.261724, 31.600062)"><g><path d="M 8.539062 -16.828125 C 8.539062 -16.910156 8.484375 -17.238281 8.394531 -17.363281 C 8.0625 -17.785156 7.371094 -18.777344 7.09375 -18.777344 C 4.96875 -15.519531 1.742188 -11.011719 0.1875 -6.371094 C -0.496094 -4.351562 -0.980469 -2.175781 -0.980469 -0.496094 C -0.980469 0.175781 1.886719 1.15625 2.546875 1.332031 C 3.496094 0.753906 4.453125 0.125 5.269531 -0.640625 C 6.144531 -1.464844 7.0625 -2.679688 7.074219 -2.886719 C 8.484375 -2.988281 9.773438 -3.351562 10.898438 -4.226562 C 11.1875 -4.453125 11.363281 -4.980469 11.363281 -5.445312 C 11.363281 -5.679688 11.25 -6.339844 10.941406 -6.339844 C 10.835938 -6.339844 10.714844 -6.269531 10.570312 -6.1875 C 9.796875 -5.753906 8.960938 -5.433594 8.074219 -5.433594 C 7.9375 -5.433594 7.816406 -5.445312 7.683594 -5.453125 C 7.660156 -6.332031 6.289062 -7.621094 4.90625 -7.621094 C 4.351562 -7.621094 3.621094 -7.558594 3.269531 -7.113281 C 4.773438 -10.269531 6.886719 -13.488281 8.539062 -16.828125 Z M 1.9375 -1.496094 C 1.773438 -1.496094 1.710938 -1.660156 1.710938 -1.804688 C 1.710938 -2.886719 1.730469 -3.90625 2.453125 -5.03125 C 3.414062 -4.308594 4.484375 -3.566406 5.136719 -3.371094 C 4.484375 -2.648438 3.074219 -1.496094 1.9375 -1.496094 Z M 1.9375 -1.496094 "/></g></g></g><g fill="#FFFFFF" fill-opacity="1"><g transform="translate(15.963816, 31.600062)"><g><path d="M 3.722656 0.269531 C 5.414062 0.269531 9.054688 -4.1875 9.054688 -5.609375 C 9.054688 -5.90625 8.898438 -6.164062 8.621094 -6.164062 C 8.496094 -6.164062 8.320312 -6.136719 8.167969 -5.992188 C 6.660156 -4.628906 4.566406 -2.351562 3.402344 -2.351562 C 2.816406 -2.351562 2.609375 -3.804688 2.609375 -4.011719 C 5.679688 -5.992188 10.722656 -11.496094 10.785156 -15.835938 C 10.785156 -16.117188 9.476562 -18.726562 8.382812 -18.726562 C 6.628906 -18.726562 4.929688 -16.40625 4.195312 -15.035156 C 2.164062 -11.257812 -0.433594 -6.929688 -0.433594 -2.402344 C -0.433594 -1.785156 2.671875 0.269531 3.722656 0.269531 Z M 3.546875 -7.125 C 3.476562 -7.125 3.464844 -7.15625 3.453125 -7.238281 C 5.464844 -11.257812 7.03125 -14.0625 8.941406 -16.332031 C 9.011719 -16.425781 9.167969 -16.4375 9.300781 -16.488281 C 9.207031 -15.21875 8.300781 -13.621094 7.691406 -12.269531 C 6.980469 -10.691406 5.09375 -8.074219 3.546875 -7.125 Z M 3.546875 -7.125 "/></g></g></g><g fill="#FFFFFF" fill-opacity="1"><g transform="translate(23.892517, 31.600062)"><g><path d="M 8.144531 -5.136719 C 7.011719 -4.019531 5.03125 -2.113281 3.453125 -2.113281 C 2.671875 -2.113281 2.496094 -2.445312 2.496094 -2.980469 C 2.496094 -3.484375 2.609375 -3.722656 2.824219 -4.09375 C 4.621094 -4.824219 7.238281 -5.867188 7.238281 -8.175781 C 7.238281 -9.464844 6.484375 -10.136719 5.074219 -10.136719 C 2.390625 -10.136719 -0.402344 -6.515625 -0.402344 -3.886719 C -0.402344 -2.527344 0.320312 -1.617188 1.371094 -1.011719 C 1.898438 -0.699219 3.761719 0.101562 4.125 0.101562 C 5.742188 0.101562 9.03125 -2.960938 9.929688 -4.238281 C 10.269531 -4.722656 10.527344 -5.300781 10.527344 -5.949219 C 10.527344 -6.320312 10.351562 -6.371094 10.15625 -6.371094 C 10.074219 -6.371094 9.992188 -6.363281 9.917969 -6.363281 C 9.199219 -6.363281 8.445312 -5.433594 8.144531 -5.136719 Z M 5.710938 -8.445312 C 5.332031 -7.671875 4.558594 -6.710938 3.703125 -6.640625 C 3.929688 -7.332031 4.621094 -8.414062 5.535156 -8.527344 C 5.589844 -8.527344 5.640625 -8.476562 5.710938 -8.445312 Z M 5.710938 -8.445312 "/></g></g></g><g fill="#FFFFFF" fill-opacity="1"><g transform="translate(32.646039, 31.600062)"><g><path d="M 7.0625 -10.105469 C 6.9375 -10.722656 4.734375 -12.796875 4.0625 -12.796875 C 4.03125 -12.796875 4.011719 -12.796875 3.992188 -12.785156 C 3.453125 -11.910156 3.816406 -10.804688 3.382812 -9.867188 C 2.917969 -8.867188 2.246094 -8.011719 1.503906 -7.21875 C 0.09375 -5.691406 -0.445312 -5.421875 -1.90625 -3.898438 C -2.21875 -3.578125 -2.351562 -3.382812 -2.351562 -3.1875 C -2.351562 -2.609375 -1.339844 -2.484375 -0.980469 -2.484375 C -0.804688 -2.484375 -0.351562 -2.609375 -0.0195312 -2.886719 C 0.660156 -1.597656 2.339844 -0.257812 3.558594 -0.257812 C 6.835938 -0.257812 9.382812 -3.402344 10.515625 -5.175781 C 10.546875 -5.1875 9.640625 -6.164062 9.640625 -6.238281 C 8.855469 -5.484375 8.597656 -5.269531 8.074219 -4.824219 L 7.621094 -4.226562 L 7.753906 -4.558594 C 7.765625 -4.703125 7.773438 -4.847656 7.773438 -4.992188 C 7.773438 -6.671875 6.96875 -8.476562 6.96875 -8.773438 C 6.96875 -9.144531 7.082031 -9.570312 7.082031 -9.910156 C 7.082031 -9.96875 7.074219 -10.042969 7.0625 -10.105469 Z M 4.949219 -7.785156 C 5.195312 -7.269531 5.394531 -6.332031 5.394531 -5.527344 C 5.394531 -4.320312 4.332031 -3.082031 2.9375 -3.082031 C 2.496094 -3.082031 1.949219 -3.402344 1.691406 -3.9375 C 2.90625 -4.992188 4.238281 -6.175781 4.949219 -7.785156 Z M 4.949219 -7.785156 "/></g></g></g><g fill="#FFFFFF" fill-opacity="1"><g transform="translate(41.791369, 31.600062)"><g><path d="M 7.0625 -10.105469 C 6.9375 -10.722656 4.734375 -12.796875 4.0625 -12.796875 C 4.03125 -12.796875 4.011719 -12.796875 3.992188 -12.785156 C 3.453125 -11.910156 3.816406 -10.804688 3.382812 -9.867188 C 2.917969 -8.867188 2.246094 -8.011719 1.503906 -7.21875 C 0.09375 -5.691406 -0.445312 -5.421875 -1.90625 -3.898438 C -2.21875 -3.578125 -2.351562 -3.382812 -2.351562 -3.1875 C -2.351562 -2.609375 -1.339844 -2.484375 -0.980469 -2.484375 C -0.804688 -2.484375 -0.351562 -2.609375 -0.0195312 -2.886719 C 0.660156 -1.597656 2.339844 -0.257812 3.558594 -0.257812 C 6.835938 -0.257812 9.382812 -3.402344 10.515625 -5.175781 C 10.546875 -5.1875 9.640625 -6.164062 9.640625 -6.238281 C 8.855469 -5.484375 8.597656 -5.269531 8.074219 -4.824219 L 7.621094 -4.226562 L 7.753906 -4.558594 C 7.765625 -4.703125 7.773438 -4.847656 7.773438 -4.992188 C 7.773438 -6.671875 6.96875 -8.476562 6.96875 -8.773438 C 6.96875 -9.144531 7.082031 -9.570312 7.082031 -9.910156 C 7.082031 -9.96875 7.074219 -10.042969 7.0625 -10.105469 Z M 4.949219 -7.785156 C 5.195312 -7.269531 5.394531 -6.332031 5.394531 -5.527344 C 5.394531 -4.320312 4.332031 -3.082031 2.9375 -3.082031 C 2.496094 -3.082031 1.949219 -3.402344 1.691406 -3.9375 C 2.90625 -4.992188 4.238281 -6.175781 4.949219 -7.785156 Z M 4.949219 -7.785156 "/></g></g></g><g fill="#FFFFFF" fill-opacity="1"><g transform="translate(50.936698, 31.600062)"><g><path d="M 3.722656 0.269531 C 5.414062 0.269531 9.054688 -4.1875 9.054688 -5.609375 C 9.054688 -5.90625 8.898438 -6.164062 8.621094 -6.164062 C 8.496094 -6.164062 8.320312 -6.136719 8.167969 -5.992188 C 6.660156 -4.628906 4.566406 -2.351562 3.402344 -2.351562 C 2.816406 -2.351562 2.609375 -3.804688 2.609375 -4.011719 C 5.679688 -5.992188 10.722656 -11.496094 10.785156 -15.835938 C 10.785156 -16.117188 9.476562 -18.726562 8.382812 -18.726562 C 6.628906 -18.726562 4.929688 -16.40625 4.195312 -15.035156 C 2.164062 -11.257812 -0.433594 -6.929688 -0.433594 -2.402344 C -0.433594 -1.785156 2.671875 0.269531 3.722656 0.269531 Z M 3.546875 -7.125 C 3.476562 -7.125 3.464844 -7.15625 3.453125 -7.238281 C 5.464844 -11.257812 7.03125 -14.0625 8.941406 -16.332031 C 9.011719 -16.425781 9.167969 -16.4375 9.300781 -16.488281 C 9.207031 -15.21875 8.300781 -13.621094 7.691406 -12.269531 C 6.980469 -10.691406 5.09375 -8.074219 3.546875 -7.125 Z M 3.546875 -7.125 "/></g></g></g><g fill="#FFFFFF" fill-opacity="1"><g transform="translate(58.865399, 31.600062)"><g><path d="M 7.042969 -3.269531 C 7.257812 -3.804688 8.734375 -6.980469 8.734375 -7.414062 C 8.734375 -7.796875 8.464844 -8.300781 7.722656 -8.300781 C 7.289062 -8.300781 6.824219 -8.105469 6.609375 -7.691406 C 5.804688 -6.164062 3.609375 -2.359375 2.445312 -2.359375 C 2.320312 -2.359375 2.269531 -2.515625 2.269531 -2.773438 C 2.269531 -3.648438 2.949219 -5.722656 4.074219 -6.792969 L 2.339844 -8.394531 C 0.144531 -7.300781 -0.792969 -4.15625 -0.792969 -2.617188 C -0.792969 -1.503906 0.445312 -0.835938 1.308594 -0.835938 C 1.804688 -0.835938 2.421875 -0.980469 3.269531 -1.320312 C 1.824219 -0.289062 -4.496094 2.453125 -4.496094 5.207031 C -4.496094 6.515625 -3.042969 7.175781 -1.472656 7.175781 C 2.300781 7.175781 5.136719 1.207031 6 -0.246094 C 6.710938 -0.699219 10.113281 -3.0625 11.425781 -5.105469 L 10.351562 -6.207031 C 9.425781 -5.300781 7.703125 -3.761719 7.042969 -3.269531 Z M -1.433594 5.464844 C -1.515625 5.464844 -1.558594 5.445312 -1.558594 5.394531 C -1.558594 4.804688 1.484375 2.300781 3.132812 1.09375 C 2.164062 2.753906 1.195312 3.710938 -0.207031 4.878906 C -0.617188 5.21875 -1.1875 5.464844 -1.433594 5.464844 Z M -1.433594 5.464844 "/></g></g></g></svg>